<?xml version="1.0" encoding="UTF-8"?><svg xmlns="http://www.w3.org/2000/svg" xmlns:xlink="http://www.w3.org/1999/xlink" viewBox="0 0 510.24 566.93"><defs><style>.cls-1{font-family:Outfit-Regular, Outfit;font-size:9px;font-variation-settings:'wght' 400;}.cls-2,.cls-3{fill:#0034e1;}.cls-3{filter:url(#drop-shadow-1);}.cls-4{font-family:Helvetica-Bold, Helvetica;font-size:5px;font-weight:700;}.cls-4,.cls-5{isolation:isolate;}.cls-6{filter:url(#drop-shadow-2);}.cls-6,.cls-7,.cls-8{fill:#041e42;}.cls-9{fill:#bf0d3e;}.cls-10{fill:#f92b2b;}.cls-11{fill:#fff;}.cls-8{letter-spacing:-.03em;}.cls-12{fill:#bac8fa;}.cls-13{fill:none;stroke:#fff;stroke-linecap:round;stroke-miterlimit:10;stroke-width:5px;}.cls-14{fill:#fcfcfc;}.cls-15{letter-spacing:-.02em;}</style><filter id="drop-shadow-1" x="320.13" y="89.46" width="141.73" height="198.43" filterUnits="userSpaceOnUse"><feOffset dx="2.27" dy="2.27"/><feGaussianBlur result="blur" stdDeviation="0"/><feFlood flood-color="#041e42" flood-opacity=".8"/><feComposite in2="blur" operator="in"/><feComposite in="SourceGraphic"/></filter><filter id="drop-shadow-2" x="369.76" y="62.92" width="50.84" height="38.03" filterUnits="userSpaceOnUse"><feOffset dx="2.27" dy="2.27"/><feGaussianBlur result="blur-2" stdDeviation="0"/><feFlood flood-color="#041e42" flood-opacity=".8"/><feComposite in2="blur-2" operator="in"/><feComposite in="SourceGraphic"/></filter></defs><g id="Layer_1"><g id="Layer_2"><path class="cls-10" d="M95.53,175.71c-2.4,0-4.6.9-6.3,2.6s-2.6,3.9-2.6,6.3c0,3.6,2.2,6.9,5.5,8.3,3.4,1.4,7.2.6,9.8-1.9,2.6-2.6,3.3-6.4,1.9-9.8-1.4-3.3-4.7-5.5-8.3-5.5h0Z"/></g><path d="M40.67,156.61h.6c.2.1.3.3.3.6.3.2.6.3.9.4.2-.1.4-.2.6-.1.2,0,.4.2.5.5.3,0,.6.1,1,.1.1-.2.3-.3.6-.3s.4.1.6.3c.3,0,.7,0,1-.1,0-.2.2-.4.5-.5.2,0,.5,0,.6.1.3-.1.6-.2.9-.4,0-.2.1-.4.3-.6.2-.1.4-.1.6,0,.6-.5,1.1-1,1.6-1.6-1.6-1.5-3.7-2.4-6.1-2.4s-4.5.9-6.1,2.4c.5.6,1,1.2,1.6,1.6h0Z"/><path d="M51.27,168.11c-.5-.6-1-1.2-1.6-1.6h-.6c-.2-.1-.3-.3-.3-.6-.3-.2-.6-.3-.9-.4-.2.1-.4.2-.6.1-.2,0-.4-.2-.5-.5-.3,0-.6-.1-1-.1-.1.2-.3.3-.6.3s-.4-.1-.6-.3c-.3,0-.7,0-1,.1,0,.2-.2.4-.5.5-.2,0-.5,0-.6-.1-.3.1-.6.2-.9.4,0,.2-.1.4-.3.6-.2.1-.4.1-.6,0-.6.5-1.1,1-1.6,1.6,1.6,1.5,3.7,2.4,6.1,2.4s4.5-.9,6.1-2.4h0Z"/><path d="M50.47,157.71c0,.2,0,.5-.3.6-.2.1-.5.1-.7,0-.4.2-.8.4-1.2.5,0,.2-.2.5-.5.5s-.5,0-.7-.2c-.4,0-.8.1-1.3.2-.1.2-.3.4-.6.4s-.5-.2-.6-.4c-.4,0-.9,0-1.3-.2-.2.2-.4.3-.7.2-.3,0-.4-.3-.5-.5-.4-.2-.8-.3-1.2-.5-.2.1-.5.1-.7,0s-.3-.4-.3-.6c-.7-.5-1.3-1.1-1.8-1.7-1.2,1.5-1.9,3.4-1.9,5.5s.7,4,1.9,5.5c.5-.7,1.1-1.2,1.8-1.7,0-.2,0-.5.3-.6.2-.1.5-.1.7,0,.4-.2.8-.4,1.2-.5,0-.2.2-.5.5-.5s.5,0,.7.2c.4,0,.9-.1,1.3-.2.1-.2.3-.4.6-.4s.5.2.6.4c.4,0,.9,0,1.3.2.2-.2.4-.3.7-.2.3,0,.4.3.5.5.4.2.8.3,1.2.5.2-.1.5-.1.7,0s.3.4.3.6c.7.5,1.3,1.1,1.8,1.7,1.2-1.5,1.9-3.4,1.9-5.5s-.7-4-1.9-5.5c-.5.7-1.1,1.2-1.8,1.7h0Z"/><g id="MXEm0r.tif"><image id="Layer_0" class="cls-5" width="826" height="603" transform="translate(136.11 142.09) scale(.14)" xlink:href="../../designs/baseballcast-1.png"/></g><g id="Layer_1-2"><path d="M75.47,131.31c-8.8-8.8-20.8-13.7-33.2-13.7-1.7,0-3-1.4-3-3,0-5.6,4.6-10.2,10.2-10.2h57.1c5.6,0,10.2,4.6,10.2,10.2v42.8c0,2.7-1.1,5.3-3,7.2-1.9,1.9-4.5,3-7.2,3h-14.2c-1.7,0-3-1.4-3-3,0-12.5-5-24.4-13.8-33.2l-.1-.1ZM42.27,131.81c8.7,0,17,3.4,23.1,9.6,6.1,6.1,9.6,14.4,9.6,23.1,0,1.7,1.3,3,3,3s3-1.3,3-3c0-10.3-4.1-20.1-11.3-27.4-7.3-7.3-17.1-11.3-27.4-11.3-1.5.2-2.7,1.5-2.7,3s1.2,2.8,2.7,3h0ZM39.27,142.11c0,.8.3,1.6.9,2.1s1.3.9,2.1.9c5.1,0,10,2,13.6,5.6s5.7,8.5,5.7,13.6.3,1.6.9,2.2,1.3.9,2.1.9c1.7,0,3-1.4,3-3,0-6.7-2.7-13.1-7.4-17.9-4.7-4.7-11.2-7.4-17.9-7.4s-3,1.3-3,3h0Z"/><g class="cls-5"><text class="cls-4" transform="translate(25.97 206.71)"><tspan x="0" y="0">Created by IconInnovate</tspan></text></g><g class="cls-5"><text class="cls-4" transform="translate(25.97 211.71)"><tspan x="0" y="0">from Noun Project</tspan></text></g></g><path class="cls-11" d="M146.29,279.36h-66.34c-1.76,0-3.45.68-4.7,1.91-1.25,1.26-1.95,2.96-1.93,4.73v29.6c-.02,1.77.68,3.47,1.93,4.72,1.25,1.25,2.94,1.95,4.71,1.94h66.34c3.67-.02,6.63-3,6.62-6.66v-29.61c.03-3.64-2.9-6.62-6.54-6.64-.03,0-.05,0-.08,0Z"/><path class="cls-9" d="M150.59,286c.03-2.35-1.86-4.28-4.21-4.31-.03,0-.05,0-.08,0h-18.54l10.64,17.78.98.12.62.81v.76l.67.14.62.85v.73l.7.12.7.76v1.69c.84.75,1.78,1.38,2.8,1.86.94.36,1.04,1.86,1.61,2.67.71,1.17,1.68,1.63,1.47,2.29-.47,1.75-2.26,4.69-3.93,4.83h-6.59v2.82h8.25c2.38-.01,4.3-1.95,4.29-4.33,0,0,0-.01,0-.02v-29.57"/><path class="cls-7" d="M105.23,317.14h-3.19c0-7.97,2.69-12.37,5.92-13.25.44-.08.23-2.26-.33-2.92h-1.86c-.3,0-.12-.56-.12-.56l1.51-3.22-.21-.88h-5.58l4.59-3.21c.21-8.46,8.89-9.12,14.11-5.59,3.11,2.06,3.34,6.13,3.11,8.95-.04.18-.81.06-.81.06,0,0-.53,3.11.85,3.11h6.1c2.49-.1,4.88,1.58,4.88,1.58l.58-2.13-13.35-17.39h-41.47c-1.15,0-2.25.44-3.07,1.24-.81.82-1.25,1.92-1.24,3.07v29.61c-.01,1.14.43,2.25,1.24,3.06.81.81,1.92,1.27,3.07,1.27h26.92c-.66-1.13-1.41-2.42-1.64-2.8"/><path class="cls-11" d="M81.62,310.86c0-1.63,1.32-2.95,2.95-2.95,1.63,0,2.95,1.32,2.95,2.95,0,1.63-1.32,2.95-2.95,2.95,0,0-.02,0-.02,0-1.61,0-2.92-1.3-2.92-2.91,0-.01,0-.02,0-.04M152.35,322.66c0-.34-.2-.38-.48-.38h-.62v1.24h.26v-.49h.21l.29.49h.29l-.3-.49c.18,0,.33-.14.33-.31,0-.02,0-.04,0-.05M151.84,322.81h-.35v-.3h.29c.12,0,.28,0,.28.14s-.07.17-.22.17"/><path class="cls-11" d="M151.76,321.71c-.66,0-1.19.53-1.19,1.19s.53,1.19,1.19,1.19c.66,0,1.19-.53,1.19-1.19.01-.65-.51-1.19-1.16-1.2-.01,0-.02,0-.03,0M151.76,323.84c-.51,0-.93-.42-.93-.93s.42-.93.93-.93.93.42.93.93-.42.93-.93.93"/><text class="cls-1" transform="translate(73.31 351.3)"><tspan x="0" y="0">the </tspan><tspan class="cls-8" x="14.93" y="0">r</tspan><tspan class="cls-7" x="18.4" y="0">e</tspan><tspan class="cls-9" x="23.23" y="0">cap</tspan></text><text class="cls-1" transform="translate(73.31 343.2)"><tspan x="0" y="0">basesb</tspan><tspan class="cls-15" x="28.22" y="0">r</tspan><tspan x="31.83" y="0">ief.com</tspan></text><text class="cls-1" transform="translate(71.74 365.21)"><tspan x="0" y="0">.com</tspan></text><text class="cls-1" transform="translate(108.52 375.46)"><tspan x="0" y="0">baseball</tspan><tspan x="7.17" y="10.8">b</tspan><tspan class="cls-15" x="12.41" y="10.8">r</tspan><tspan x="16.01" y="10.8">ief</tspan></text><path d="M72.66,325.79v-.74h2.92v.74h-2.92ZM73.71,329.33v-6.07h.81v6.07h-.81Z"/><path d="M76.37,329.33v-6.43h.81v6.43h-.81ZM79.38,329.33v-2.49c0-.32-.1-.59-.3-.8s-.46-.31-.79-.31c-.22,0-.41.05-.58.14-.17.1-.3.23-.4.4s-.14.36-.14.58l-.33-.19c0-.32.07-.61.22-.86.14-.25.34-.45.6-.6s.55-.22.87-.22.61.07.86.22.45.35.59.6c.14.26.22.56.22.89v2.65h-.82Z"/><path d="M83.28,329.42c-.43,0-.82-.1-1.16-.29-.34-.19-.61-.46-.81-.8-.2-.34-.3-.72-.3-1.14s.1-.8.29-1.13.46-.6.79-.8c.33-.2.71-.29,1.12-.29.39,0,.74.09,1.04.27.31.18.54.43.71.75.17.32.26.68.26,1.09,0,.06,0,.12,0,.19,0,.07-.02.15-.04.23h-3.61v-.68h3.18l-.3.26c0-.29-.05-.53-.15-.73-.1-.2-.25-.36-.43-.47-.19-.11-.41-.17-.67-.17s-.52.06-.73.18c-.21.12-.37.29-.49.5-.11.22-.17.47-.17.77s.06.56.18.79c.12.22.29.4.51.52.22.12.48.18.77.18.24,0,.46-.04.66-.13s.37-.21.52-.38l.52.53c-.21.24-.46.42-.76.55s-.61.19-.94.19Z"/><path class="cls-7" d="M87.99,329.33v-4.27h.81v4.27h-.81ZM88.8,326.9l-.31-.14c0-.55.13-.98.38-1.3.25-.32.62-.49,1.09-.49.22,0,.41.04.58.11.17.08.34.2.49.37l-.53.55c-.09-.1-.19-.17-.3-.21-.11-.04-.23-.06-.38-.06-.3,0-.55.1-.74.29-.19.19-.29.49-.29.88Z"/><path class="cls-7" d="M93.44,329.42c-.43,0-.82-.1-1.16-.29-.34-.19-.61-.46-.81-.8-.2-.34-.3-.72-.3-1.14s.1-.8.29-1.13.46-.6.79-.8c.33-.2.71-.29,1.12-.29.39,0,.74.09,1.04.27.31.18.54.43.71.75.17.32.26.68.26,1.09,0,.06,0,.12,0,.19,0,.07-.02.15-.04.23h-3.61v-.68h3.18l-.3.26c0-.29-.05-.53-.15-.73-.1-.2-.25-.36-.43-.47-.19-.11-.41-.17-.67-.17s-.52.06-.73.18c-.21.12-.37.29-.49.5-.11.22-.17.47-.17.77s.06.56.18.79c.12.22.29.4.51.52.22.12.48.18.77.18.24,0,.46-.04.66-.13s.37-.21.52-.38l.52.53c-.21.24-.46.42-.76.55s-.61.19-.94.19Z"/><path class="cls-7" d="M93.44,319.42c-.43,0-.82-.1-1.16-.29-.34-.19-.61-.46-.81-.8-.2-.34-.3-.72-.3-1.14s.1-.8.29-1.13.46-.6.79-.8c.33-.2.71-.29,1.12-.29.39,0,.74.09,1.04.27.31.18.54.43.71.75.17.32.26.68.26,1.09,0,.06,0,.12,0,.19,0,.07-.02.15-.04.23h-3.61v-.68h3.18l-.3.26c0-.29-.05-.53-.15-.73-.1-.2-.25-.36-.43-.47-.19-.11-.41-.17-.67-.17s-.52.06-.73.18c-.21.12-.37.29-.49.5-.11.22-.17.47-.17.77s.06.56.18.79c.12.22.29.4.51.52.22.12.48.18.77.18.24,0,.46-.04.66-.13s.37-.21.52-.38l.52.53c-.21.24-.46.42-.76.55s-.61.19-.94.19Z"/><path class="cls-9" d="M98.24,329.42c-.42,0-.8-.1-1.14-.3-.34-.2-.61-.47-.8-.81-.2-.34-.29-.72-.29-1.13s.1-.8.29-1.13.46-.6.8-.8c.34-.2.72-.29,1.14-.29.33,0,.64.06.92.18.28.12.53.3.73.54l-.54.54c-.13-.16-.29-.27-.49-.36s-.4-.12-.62-.12c-.27,0-.51.06-.72.18s-.38.29-.5.51c-.12.22-.18.47-.18.75s.06.53.18.75.29.39.5.51.45.19.72.19c.23,0,.44-.04.63-.12.19-.08.35-.2.49-.36l.53.54c-.2.23-.44.4-.72.53s-.59.19-.92.19Z"/><path class="cls-9" d="M102.5,329.42c-.4,0-.75-.1-1.07-.29-.32-.19-.56-.46-.75-.8-.18-.34-.27-.71-.27-1.13s.09-.8.27-1.13c.18-.34.43-.6.75-.8.31-.2.67-.3,1.07-.3.32,0,.61.07.87.2.25.14.46.32.62.56.16.24.24.51.26.82v1.29c-.02.31-.1.58-.26.82-.15.24-.36.43-.62.56-.26.13-.55.2-.87.2ZM102.64,328.66c.4,0,.73-.14.97-.41s.37-.62.37-1.05c0-.29-.06-.54-.17-.77s-.27-.39-.47-.52-.44-.18-.71-.18-.51.06-.72.19-.37.3-.49.52c-.12.22-.18.47-.18.75s.06.54.18.76c.12.22.28.39.49.52.21.13.45.19.72.19ZM103.92,329.33v-1.15l.15-1.04-.15-1.04v-1.04h.82v4.27h-.82Z"/><path class="cls-9" d="M105.92,331.12v-6.07h.81v1.12l-.15,1.03.15,1.04v2.86h-.81ZM108.17,329.42c-.32,0-.62-.07-.88-.2-.26-.14-.47-.32-.63-.56-.16-.24-.24-.51-.26-.82v-1.29c.02-.31.11-.59.27-.82.16-.24.37-.42.63-.56.26-.13.55-.2.87-.2.39,0,.74.1,1.06.3.32.2.56.46.74.8.18.34.27.71.27,1.13s-.09.8-.27,1.13c-.18.34-.43.6-.74.8-.31.2-.67.29-1.06.29ZM108.04,328.66c.27,0,.51-.06.71-.19.2-.13.36-.3.48-.52.12-.22.18-.47.18-.76s-.06-.53-.18-.75c-.12-.22-.28-.39-.48-.52s-.44-.19-.71-.19-.5.06-.7.19-.36.3-.48.52c-.11.22-.17.47-.17.76s.05.53.17.75c.11.22.27.39.48.52.21.13.44.19.71.19Z"/><path d="M56.77,81.78c.09.11.18.2.29.29.27-.29.44-.67.44-1.11s-.16-.82-.44-1.11c-.11.09-.22.18-.29.29v.11s-.05.05-.11.05c-.04.05-.05.11-.07.16.02.04.04.07.02.11,0,.04-.04.07-.09.09,0,.05-.02.11-.02.18.04.02.05.05.05.11s-.02.07-.05.11c0,.05,0,.13.02.18.04,0,.07.04.09.09,0,.04,0,.09-.02.11.02.05.04.11.07.16.04,0,.07.02.11.05.02.04.02.07,0,.11h0Z"/><path d="M54.67,79.85c-.27.29-.44.67-.44,1.11s.16.82.44,1.11c.11-.09.22-.18.29-.29v-.11s.05-.05.11-.05c.04-.05.05-.11.07-.16-.02-.04-.04-.07-.02-.11,0-.04.04-.07.09-.09,0-.05.02-.11.02-.18-.04-.02-.05-.05-.05-.11s.02-.07.05-.11c0-.05,0-.13-.02-.18-.04,0-.07-.04-.09-.09,0-.04,0-.09.02-.11-.02-.05-.04-.11-.07-.16-.04,0-.07-.02-.11-.05-.02-.04-.02-.07,0-.11-.09-.11-.18-.2-.29-.29h0Z"/><path d="M56.55,80.01c.09-.13.2-.24.31-.33-.27-.22-.62-.35-1-.35s-.73.13-1,.35c.13.09.22.2.31.33.04,0,.09,0,.11.05.02.04.02.09,0,.13.04.07.07.15.09.22.04,0,.07.04.09.09,0,.04,0,.09-.04.13,0,.07.02.15.04.24.04.02.07.05.07.11s-.04.09-.07.11c0,.07,0,.16-.04.24.04.04.05.07.04.13,0,.05-.05.07-.09.09-.04.07-.05.15-.09.22.02.04.02.09,0,.13s-.07.05-.11.05c-.09.13-.2.24-.31.33.27.22.62.35,1,.35s.73-.13,1-.35c-.13-.09-.22-.2-.31-.33-.04,0-.09,0-.11-.05-.02-.04-.02-.09,0-.13-.04-.07-.07-.15-.09-.22-.04,0-.09-.04-.09-.09,0-.04,0-.09.04-.13,0-.07-.02-.15-.04-.24-.04-.02-.07-.05-.07-.11s.04-.09.07-.11c0-.07,0-.16.04-.24-.04-.04-.05-.07-.04-.13,0-.05.05-.07.09-.09.04-.07.05-.15.09-.22-.02-.04-.02-.09,0-.13s.07-.05.11-.05h0Z"/><path d="M55.33,72.95c-.31,0-.55-.24-.55-.55v-2.59c0-.49.2-.97.55-1.31.35-.35.82-.55,1.31-.55h7.8c1.02,0,1.86.84,1.86,1.86v10.4c0,1.02-.84,1.86-1.86,1.86-.31,0-.55-.24-.55-.55,0-2.26-.89-4.45-2.5-6.05-1.6-1.6-3.77-2.51-6.05-2.51l-.02-.02ZM61.29,81.51c.04.27.27.49.55.49s.51-.22.55-.49c0-1.88-.75-3.66-2.06-4.99-1.33-1.33-3.12-2.06-4.99-2.06-.31,0-.55.24-.55.55s.24.55.55.55c1.59,0,3.1.64,4.21,1.75s1.75,2.62,1.75,4.21h0ZM59.39,82.06c.31,0,.55-.24.55-.55,0-1.22-.49-2.39-1.35-3.26-.86-.86-2.04-1.35-3.26-1.35-.31,0-.55.24-.55.55,0,.15.05.29.16.38.11.11.24.16.4.16.93,0,1.82.36,2.48,1.04.66.66,1.02,1.55,1.02,2.48,0,.15.05.29.16.38s.24.16.38.16h0Z"/><rect class="cls-12" x="305.95" y="75.29" width="170.08" height="226.77" rx="17.01" ry="17.01"/><rect class="cls-3" x="320.13" y="89.46" width="141.73" height="198.43" rx="17.01" ry="17.01"/><path class="cls-6" d="M418.33,84.06v3.28c0,6.26-5.08,11.34-11.34,11.34h-25.89c-6.26,0-11.34-5.08-11.34-11.34v-3.28c0-6.26,5.08-11.34,11.34-11.34h1.72c.74-5.54,5.48-9.8,11.23-9.8s10.48,4.26,11.22,9.8h1.72c6.26,0,11.34,5.08,11.34,11.34Z"/><path d="M199.29,246c-1.7,0-3-1.3-3-3v-14.2c0-2.7,1.1-5.3,3-7.2,1.9-1.9,4.5-3,7.2-3h42.8c5.6,0,10.2,4.6,10.2,10.2v57.1c0,5.6-4.6,10.2-10.2,10.2-1.7,0-3-1.3-3-3,0-12.4-4.9-24.4-13.7-33.2-8.8-8.8-20.7-13.8-33.2-13.8l-.1-.1ZM231.99,293c.2,1.5,1.5,2.7,3,2.7s2.8-1.2,3-2.7c0-10.3-4.1-20.1-11.3-27.4-7.3-7.3-17.1-11.3-27.4-11.3-1.7,0-3,1.3-3,3s1.3,3,3,3c8.7,0,17,3.5,23.1,9.6,6.1,6.1,9.6,14.4,9.6,23.1h0ZM221.59,296c1.7,0,3-1.3,3-3,0-6.7-2.7-13.1-7.4-17.9-4.7-4.7-11.2-7.4-17.9-7.4-1.7,0-3,1.3-3,3,0,.8.3,1.6.9,2.1.6.6,1.3.9,2.2.9,5.1,0,10,2,13.6,5.7,3.6,3.6,5.6,8.5,5.6,13.6,0,.8.3,1.6.9,2.1s1.3.9,2.1.9h0Z"/><path d="M110.22,465.59c-3.43,0-6.06-2.62-6.06-6.06v-28.66c0-5.45,2.22-10.7,6.06-14.53,3.83-3.83,9.08-6.06,14.53-6.06h86.38c11.3,0,20.59,9.28,20.59,20.59v115.25c0,11.3-9.28,20.59-20.59,20.59-3.43,0-6.06-2.62-6.06-6.06,0-25.03-9.89-49.25-27.65-67.01-17.76-17.76-41.78-27.85-67.01-27.85l-.2-.2ZM176.22,560.45c.4,3.03,3.03,5.45,6.06,5.45s5.65-2.42,6.06-5.45c0-20.79-8.28-40.57-22.81-55.3-14.73-14.73-34.51-22.81-55.3-22.81-3.43,0-6.06,2.62-6.06,6.06s2.62,6.06,6.06,6.06c17.56,0,34.31,7.06,46.62,19.38,12.31,12.31,19.38,29.06,19.38,46.62h0ZM155.23,566.51c3.43,0,6.06-2.62,6.06-6.06,0-13.52-5.45-26.44-14.94-36.13-9.49-9.49-22.61-14.94-36.13-14.94-3.43,0-6.06,2.62-6.06,6.06,0,1.61.61,3.23,1.82,4.24,1.21,1.21,2.62,1.82,4.44,1.82,10.29,0,20.18,4.04,27.45,11.5,7.27,7.27,11.3,17.16,11.3,27.45,0,1.61.61,3.23,1.82,4.24s2.62,1.82,4.24,1.82h0Z"/><path class="cls-11" d="M427.2,269.73c.54,4.08,4.08,7.34,8.16,7.34s7.61-3.26,8.16-7.34c0-28.01-11.15-54.65-30.73-74.5-19.85-19.85-46.5-30.73-74.5-30.73-4.62,0-8.16,3.53-8.16,8.16s3.53,8.16,8.16,8.16c23.66,0,46.22,9.52,62.81,26.1,16.59,16.59,26.1,39.15,26.1,62.81h0ZM398.92,277.88c4.62,0,8.16-3.53,8.16-8.16,0-18.22-7.34-35.62-20.12-48.67-12.78-12.78-30.45-20.12-48.67-20.12-4.62,0-8.16,3.53-8.16,8.16,0,2.18.82,4.35,2.45,5.71,1.63,1.63,3.53,2.45,5.98,2.45,13.87,0,27.19,5.44,36.98,15.5,9.79,9.79,15.23,23.11,15.23,36.98,0,2.18.82,4.35,2.45,5.71,1.63,1.36,3.53,2.45,5.71,2.45h0Z"/><path d="M189.96,99.18c.79.95,1.58,1.74,2.53,2.53,2.38-2.53,3.8-5.86,3.8-9.66s-1.43-7.13-3.8-9.66c-.95.79-1.9,1.58-2.53,2.53v.95c-.16.32-.48.48-.95.48-.32.48-.48.95-.63,1.43.16.32.32.63.16.95,0,.32-.32.63-.79.79,0,.48-.16.95-.16,1.58.32.16.48.48.48.95s-.16.63-.48.95c0,.48,0,1.11.16,1.58.32,0,.63.32.79.79,0,.32,0,.79-.16.95.16.48.32.95.63,1.43.32,0,.63.16.95.48.16.32.16.63,0,.95h0Z"/><path d="M171.75,82.4c-2.38,2.53-3.8,5.86-3.8,9.66s1.43,7.13,3.8,9.66c.95-.79,1.9-1.58,2.53-2.53v-.95c.16-.32.48-.48.95-.48.32-.48.48-.95.63-1.43-.16-.32-.32-.63-.16-.95,0-.32.32-.63.79-.79,0-.48.16-.95.16-1.58-.32-.16-.48-.48-.48-.95s.16-.63.48-.95c0-.48,0-1.11-.16-1.58-.32,0-.63-.32-.79-.79,0-.32,0-.79.16-.95-.16-.48-.32-.95-.63-1.43-.32,0-.63-.16-.95-.48-.16-.32-.16-.63,0-.95-.79-.95-1.58-1.74-2.53-2.53h0Z"/><path d="M188.06,83.82c.79-1.11,1.74-2.06,2.69-2.85-2.38-1.9-5.38-3.01-8.71-3.01s-6.33,1.11-8.71,3.01c1.11.79,1.9,1.74,2.69,2.85.32,0,.79,0,.95.48.16.32.16.79,0,1.11.32.63.63,1.27.79,1.9.32,0,.63.32.79.79,0,.32,0,.79-.32,1.11,0,.63.16,1.27.32,2.06.32.16.63.48.63.95s-.32.79-.63.95c0,.63,0,1.43-.32,2.06.32.32.48.63.32,1.11,0,.48-.48.63-.79.79-.32.63-.48,1.27-.79,1.9.16.32.16.79,0,1.11s-.63.48-.95.48c-.79,1.11-1.74,2.06-2.69,2.85,2.38,1.9,5.38,3.01,8.71,3.01s6.33-1.11,8.71-3.01c-1.11-.79-1.9-1.74-2.69-2.85-.32,0-.79,0-.95-.48-.16-.32-.16-.79,0-1.11-.32-.63-.63-1.27-.79-1.9-.32,0-.79-.32-.79-.79,0-.32,0-.79.32-1.11,0-.63-.16-1.27-.32-2.06-.32-.16-.63-.48-.63-.95s.32-.79.63-.95c0-.63,0-1.43.32-2.06-.32-.32-.48-.63-.32-1.11,0-.48.48-.63.79-.79.32-.63.48-1.27.79-1.9-.16-.32-.16-.79,0-1.11s.63-.48.95-.48h0Z"/><circle class="cls-9" cx="348.09" cy="260.01" r="15.56"/><path class="cls-11" d="M355.89,251.23c1.06-.89,1.95-1.77,2.84-2.84-2.84-2.66-6.56-4.26-10.82-4.26s-7.98,1.6-10.82,4.26c.89,1.06,1.77,2.13,2.84,2.84h1.06c.35.18.53.53.53,1.06.53.35,1.06.53,1.6.71.35-.18.71-.35,1.06-.18.35,0,.71.35.89.89.53,0,1.06.18,1.77.18.18-.35.53-.53,1.06-.53s.71.18,1.06.53c.53,0,1.24,0,1.77-.18,0-.35.35-.71.89-.89.35,0,.89,0,1.06.18.53-.18,1.06-.35,1.6-.71,0-.35.18-.71.53-1.06.35-.18.71-.18,1.06,0h0Z"/><path class="cls-11" d="M337.09,271.63c2.84,2.66,6.56,4.26,10.82,4.26s7.98-1.6,10.82-4.26c-.89-1.06-1.77-2.13-2.84-2.84h-1.06c-.35-.18-.53-.53-.53-1.06-.53-.35-1.06-.53-1.6-.71-.35.18-.71.35-1.06.18-.35,0-.71-.35-.89-.89-.53,0-1.06-.18-1.77-.18-.18.35-.53.53-1.06.53s-.71-.18-1.06-.53c-.53,0-1.24,0-1.77.18,0,.35-.35.71-.89.89-.35,0-.89,0-1.06-.18-.53.18-1.06.35-1.6.71,0,.35-.18.71-.53,1.06-.35.18-.71.18-1.06,0-1.06.89-1.95,1.77-2.84,2.84h0Z"/><path class="cls-11" d="M338.69,253.36c-1.24-.89-2.31-1.95-3.19-3.02-2.13,2.66-3.37,6.03-3.37,9.75s1.24,7.09,3.37,9.75c.89-1.24,1.95-2.13,3.19-3.02,0-.35,0-.89.53-1.06.35-.18.89-.18,1.24,0,.71-.35,1.42-.71,2.13-.89,0-.35.35-.71.89-.89.35,0,.89,0,1.24.35.71,0,1.42-.18,2.31-.35.18-.35.53-.71,1.06-.71s.89.35,1.06.71c.71,0,1.6,0,2.31.35.35-.35.71-.53,1.24-.35.53,0,.71.53.89.89.71.35,1.42.53,2.13.89.35-.18.89-.18,1.24,0s.53.71.53,1.06c1.24.89,2.31,1.95,3.19,3.02,2.13-2.66,3.37-6.03,3.37-9.75s-1.24-7.09-3.37-9.75c-.89,1.24-1.95,2.13-3.19,3.02,0,.35,0,.89-.53,1.06-.35.18-.89.18-1.24,0-.71.35-1.42.71-2.13.89,0,.35-.35.89-.89.89-.35,0-.89,0-1.24-.35-.71,0-1.42.18-2.31.35-.18.35-.53.71-1.06.71s-.89-.35-1.06-.71c-.71,0-1.6,0-2.31-.35-.35.35-.71.53-1.24.35-.53,0-.71-.53-.89-.89-.71-.35-1.42-.53-2.13-.89-.35.18-.89.18-1.24,0s-.53-.71-.53-1.06h0Z"/><circle class="cls-14" cx="336.06" cy="117.99" r="2.63"/><line class="cls-13" x1="349.82" y1="117.99" x2="448.55" y2="117.99"/><circle class="cls-14" cx="336.06" cy="131.75" r="2.63"/><line class="cls-13" x1="349.82" y1="131.75" x2="448.55" y2="131.75"/></g><g id="Layer_5"><rect class="cls-2" x="130.4" y="13.02" width="114.36" height="49.49"/><path d="M237.76,20.02v35.49h-100.36V20.02h100.36M251.76,6.02H123.4v63.49h128.36V6.02h0Z"/></g></svg>