<?xml version="1.0" encoding="UTF-8"?><svg id="Layer_5" xmlns="http://www.w3.org/2000/svg" viewBox="0 0 510.24 566.93"><defs><style>.cls-1,.cls-2{fill:#0034e1;}.cls-3{stroke:#bf0d3e;stroke-linecap:round;stroke-width:30px;}.cls-3,.cls-4,.cls-5{fill:none;stroke-miterlimit:10;}.cls-2{fill-rule:evenodd;}.cls-4{stroke-width:25px;}.cls-4,.cls-5{stroke:#000;}.cls-5{stroke-width:14px;}</style></defs><path class="cls-3" d="M113.39,485.75c36.06-33.09,58.36-78.78,58.36-129.26s-22.3-96.18-58.36-129.27"/><path class="cls-3" d="M396.85,484.43c-35.23-32.98-56.95-78.13-56.95-127.93s21.73-94.97,56.95-127.94"/><path d="M255.12,183.35c46.84,0,90.88,18.24,124.01,51.36s51.36,77.16,51.36,124.01-18.24,90.88-51.36,124.01-77.16,51.36-124.01,51.36-90.88-18.24-124.01-51.36-51.36-77.16-51.36-124.01,18.24-90.88,51.36-124.01,77.16-51.36,124.01-51.36M255.12,153.35c-113.42,0-205.37,91.95-205.37,205.37s91.95,205.37,205.37,205.37,205.37-91.95,205.37-205.37-91.95-205.37-205.37-205.37h0Z"/><path class="cls-4" d="M215.11,445.01c0,24.26,17.89,43.89,40,43.89,22.11,0,40-19.63,40-43.89"/><circle cx="175.4" cy="346.15" r="37.8"/><circle cx="330.57" cy="346.15" r="37.8"/><path class="cls-1" d="M145.63,256.02c-15.8,0-37.47-9.13-49.13-20.39-1.12-5.61-1.74-11.45-1.88-17.75v-.43s-.05-.43-.05-.43c-.04-.44-.04-1-.04-1.79,0-29.48,11.79-57.34,34.08-80.54,22.11-23.01,53.31-39.52,87.85-46.48,12.34-2.57,25.32-3.87,38.66-3.87s26.31,1.3,38.57,3.85c34.62,6.97,65.82,23.48,87.93,46.49,22.3,23.21,34.08,51.06,34.08,80.54v1.61c-.14,6.82-.88,13.57-2.19,20.13-10.21,8.7-33.03,18.99-46.38,18.99-.29,0-.57,0-.85-.02-4.92-.32-83.16-5.41-111.57-5.41h-.74c-26.49,0-102.94,5.2-106.18,5.42-.64.04-1.4.06-2.17.06Z"/><path d="M255.12,96.86c12.48,0,24.6,1.21,36.03,3.59l.08.02.08.02c32.06,6.46,60.94,21.69,81.3,42.88,20.02,20.83,30.6,45.69,30.6,71.88v1.47c-.1,4.54-.48,8.93-1.14,13.27-3.38,2.31-8.09,5.01-13.68,7.48-9.35,4.14-17.41,6-21.25,6-.08,0-.15,0-.22,0-6.48-.42-83.7-5.43-112.2-5.43h-.71c-26.72,0-102.41,5.13-106.95,5.44-.45.03-.93.04-1.43.04-11.4,0-27.7-6.44-37.56-14.35-.54-3.68-.86-7.51-.95-11.57l-.02-.85-.06-.69c0-.27,0-.53,0-.81,0-26.19,10.58-51.05,30.6-71.88,20.36-21.19,49.24-36.42,81.3-42.88l.08-.02.08-.02c11.43-2.38,23.55-3.59,36.03-3.59M255.12,71.86c-14.16,0-27.96,1.37-41.12,4.11-75.76,15.26-131.96,71.83-131.96,139.27,0,1.01,0,1.92.09,2.92.18,8.04,1.1,15.9,2.92,23.58,13.23,14.8,40.06,26.78,60.58,26.78,1.02,0,2.03-.03,3.02-.09,0,0,78.96-5.39,105.37-5.39.23,0,.46,0,.7,0,28.63,0,110.88,5.39,110.88,5.39.5.02,1.01.04,1.53.04,17.73,0,46.68-13.36,57.78-25.08,2.01-8.59,3.11-17.36,3.29-26.41v-1.74c0-67.44-56.2-124.01-131.96-139.27-13.16-2.74-26.96-4.11-41.12-4.11h0Z"/><path class="cls-1" d="M145.63,266.49c-17.27,0-41.44-11.91-52.79-26.02l-.13-.16c-2.09-2.48-3.59-4.8-4.47-6.9l-.07-.17c-1.32-2.97-.78-3.9.85-5.44,3.28-3.14,9.87-6.05,15.06-8.26,8.32-1.41,64.97-10.54,151.66-12.66,2.98-.07,6.12-.11,9.33-.11,58.8,0,136.99,12.15,142.03,12.94,5.81,1.27,11.13,3.74,13.97,6.5,1.95,2.09,1.78,3.25,1.72,3.7l-.02.15c-.66,5.28-1.37,6.2-1.74,6.69-.46.6-1.17,1.51-1.82,2.75l-.06.12c-.25.48-.87,1.32-1.87,2.5-9.01,10.58-34.97,24.29-50.12,24.29-.31,0-.62,0-.92-.02-4.75-.34-83.1-6.01-111.5-6.01h-.73c-26.45,0-102.85,5.78-106.09,6.02-.68.05-1.46.07-2.27.07Z"/><path d="M265.06,216.77c57.11,0,133.09,11.67,140.17,12.77,2.92.66,5.26,1.62,6.85,2.48-.49.7-1.06,1.58-1.63,2.63-.11.15-.35.45-.8.99-2.73,3.18-9.58,8.68-19.97,13.79-10.48,5.16-18.69,6.99-22.54,6.99-.12,0-.24,0-.35,0-6.11-.44-83.58-6.02-112.06-6.03h-.71c-26.67,0-102.46,5.72-106.78,6.04-.51.03-1.05.05-1.6.05-14.42,0-35.45-10.42-45-22.29l-.13-.16-.14-.16c-.35-.42-.66-.8-.94-1.17,2.28-1.23,5.13-2.5,7.48-3.51,11.18-1.85,66.03-10.29,149.06-12.32,2.9-.07,5.96-.11,9.09-.11h0M265.06,196.77c-3.25,0-6.45.04-9.58.11-95.59,2.34-154.26,13-154.26,13-6.95,2.94-14.44,6.19-19.1,10.66-4.39,4.16-6.31,9.54-3.11,16.75,1.37,3.25,3.47,6.4,6.03,9.44,13.23,16.44,40.06,29.75,60.58,29.75,1.02,0,2.03-.03,3.02-.1,0,0,78.96-5.99,105.37-5.99.23,0,.46,0,.7,0,28.63,0,110.88,5.99,110.88,5.99.5.03,1.01.04,1.53.04,17.73,0,46.68-14.84,57.78-27.86,1.28-1.52,2.38-2.94,3.11-4.37,1.19-2.23,3.38-2.64,4.66-12.9.64-4.57-1.19-8.63-4.48-12.08-4.39-4.37-11.61-7.72-19.28-9.34,0,0-81.85-13.11-143.86-13.11h0Z"/><path class="cls-1" d="M255.12,102.36c-9.97,0-19.57-2.31-26.35-6.35-5.18-3.08-8.15-6.77-8.15-10.12s2.97-7.04,8.15-10.12c6.78-4.03,16.39-6.35,26.35-6.35s19.57,2.31,26.35,6.35c5.18,3.08,8.15,6.77,8.15,10.12s-2.97,7.04-8.15,10.12c-6.78,4.03-16.39,6.35-26.35,6.35Z"/><path d="M255.12,79.43c12.09,0,20.32,3.84,23.49,6.47-3.17,2.63-11.4,6.47-23.49,6.47s-20.32-3.84-23.49-6.47c3.17-2.63,11.4-6.47,23.49-6.47M255.12,59.43c-24.58,0-44.5,11.85-44.5,26.47s19.92,26.47,44.5,26.47,44.5-11.85,44.5-26.47-19.92-26.47-44.5-26.47h0Z"/><line class="cls-5" x1="255.12" y1="28.7" x2="255.12" y2="85.9"/><path class="cls-2" d="M256.15,47.06c-10.13,0-18.36-8.24-18.36-18.36s8.24-18.36,18.36-18.36,18.36,8.24,18.36,18.36-8.24,18.36-18.36,18.36Z"/><path d="M256.15,17.83c5.99,0,10.86,4.87,10.86,10.86s-4.87,10.86-10.86,10.86-10.86-4.87-10.86-10.86,4.87-10.86,10.86-10.86M256.15,2.83c-14.28,0-25.86,11.58-25.86,25.86s11.58,25.86,25.86,25.86,25.86-11.58,25.86-25.86-11.58-25.86-25.86-25.86h0Z"/></svg>